<svg width="568" height="421" viewBox="0 0 568 421" fill="none" xmlns="http://www.w3.org/2000/svg">
<rect width="568" height="421" fill="#E5E5E5"/>
<g id="undraw_online_popularity_elhc (1) 1" clip-path="url(#clip0)">
<rect width="568" height="421" fill="white"/>
<path id="Vector" d="M461.154 15.7291C453.65 0.754366 438.803 0.0564858 438.803 0.0564858C438.803 0.0564858 424.335 -2.12836 415.054 20.6783C406.404 41.936 394.465 62.4608 413.132 67.4371L416.504 55.0434L418.592 68.3598C421.25 68.5855 423.917 68.6393 426.579 68.521C446.57 67.7587 465.609 68.744 464.996 60.2723C464.181 49.0103 468.375 30.1378 461.154 15.7291Z" fill="#2F2E41"/>
<path id="Vector_2" d="M422.849 401.039C486.214 401.039 537.581 397.518 537.581 393.175C537.581 388.832 486.214 385.312 422.849 385.312C359.484 385.312 308.116 388.832 308.116 393.175C308.116 397.518 359.484 401.039 422.849 401.039Z" fill="#3F3D56"/>
<path id="Vector_3" d="M148.823 402.853C229.161 402.853 294.287 399.333 294.287 394.99C294.287 390.647 229.161 387.126 148.823 387.126C68.4853 387.126 3.35872 390.647 3.35872 394.99C3.35872 399.333 68.4853 402.853 148.823 402.853Z" fill="#3F3D56"/>
<path id="Vector_4" d="M324.507 421C396.075 421 454.093 417.479 454.093 413.136C454.093 408.794 396.075 405.273 324.507 405.273C252.938 405.273 194.921 408.794 194.921 413.136C194.921 417.479 252.938 421 324.507 421Z" fill="#3F3D56"/>
<path id="Vector_5" d="M378.422 361.195C378.894 380.284 369.449 387.279 357.596 387.688C357.321 387.698 357.047 387.703 356.774 387.706C356.224 387.711 355.68 387.7 355.141 387.673C344.422 387.148 335.936 380.428 335.497 362.675C335.043 344.303 354.352 320.432 355.801 318.666L355.804 318.665C355.859 318.598 355.887 318.564 355.887 318.564C355.887 318.564 377.949 342.107 378.422 361.195Z" fill="#FF8D4E"/>
<path id="Vector_6" d="M356.743 384.795L364.272 371.572L356.758 386.218L356.774 387.706C356.224 387.711 355.68 387.7 355.141 387.673L355.515 368.547L355.504 368.4L355.518 368.371L355.554 366.564L347.308 352.426L355.544 365.211L355.573 365.593L355.855 351.143L348.734 336.485L355.876 348.604L355.801 318.666L355.801 318.567L355.804 318.665L356.276 342.26L362.767 332.675L356.298 344.292L356.439 357.218L362.412 344.603L356.461 359.118L356.54 366.306L365.226 348.733L356.567 368.813L356.743 384.795Z" fill="#3F3D56"/>
<path id="Vector_7" d="M42.932 367.848C43.4041 386.937 33.9595 393.933 22.1068 394.342C21.8315 394.351 21.5574 394.357 21.2846 394.359C20.7349 394.364 20.1906 394.353 19.6516 394.327C8.93206 393.801 0.446906 387.081 0.00789088 369.329C-0.446429 350.957 18.8629 327.086 20.3116 325.32L20.3142 325.319C20.3692 325.251 20.3974 325.218 20.3974 325.218C20.3974 325.218 42.46 348.761 42.932 367.848Z" fill="#FF8D4E"/>
<path id="Vector_8" d="M21.2535 391.449L28.7827 378.226L21.2689 392.871L21.2846 394.359C20.7349 394.364 20.1906 394.353 19.6516 394.327L20.025 375.201L20.0148 375.053L20.0286 375.025L20.0643 373.217L11.8189 359.08L20.0546 371.865L20.0838 372.247L20.3659 357.796L13.2441 343.139L20.3862 355.258L20.3116 325.32L20.3118 325.221L20.3142 325.319L20.787 348.913L27.2776 339.329L20.8082 350.946L20.9499 363.872L26.9226 351.257L20.9718 365.772L21.0507 372.959L29.7367 355.387L21.0771 375.467L21.2535 391.449Z" fill="#3F3D56"/>
<path id="Vector_9" d="M525.256 379.204L563.193 312.578L525.333 386.371L525.413 393.868C522.643 393.893 519.9 393.839 517.185 393.705L519.066 297.335L519.015 296.591L519.084 296.448L519.264 287.341L477.718 216.106L519.215 280.526L519.362 282.45L520.784 209.639L484.899 135.784L520.886 196.848L520.51 46.0018L520.511 45.4997L520.523 45.9935L522.905 164.881L555.61 116.589L523.012 175.123L523.726 240.251L553.821 176.688L523.837 249.826L524.234 286.04L568 197.498L524.367 298.674L525.256 379.204Z" fill="#3F3D56"/>
<path id="Vector_10" d="M416.686 157.554C416.686 157.554 407.896 185.376 413.522 210.291C419.148 235.206 433.916 294.588 433.916 294.588L453.607 340.681C453.607 340.681 464.859 349.816 471.54 331.13L453.607 291.266L471.16 219.238C474.496 205.769 475.205 191.583 473.235 177.744C472.234 170.905 470.529 164.063 467.672 158.8C467.672 158.8 421.961 150.495 416.686 157.554Z" fill="#2F2E41"/>
<path id="Vector_11" d="M434.971 289.605L424.422 354.384C424.422 354.384 435.322 363.52 441.651 360.613L452.2 312.859L434.971 289.605Z" fill="#2F2E41"/>
<path id="Vector_12" d="M425.828 353.138L414.576 380.13L410.005 390.926C410.005 390.926 385.04 419.164 404.731 416.257C424.422 413.35 425.828 409.197 425.828 409.197L429.696 402.553L430.751 405.045C430.751 405.045 436.377 399.647 436.377 397.986C436.377 396.325 434.267 379.299 434.267 379.299L437.08 359.367L425.828 353.138Z" fill="#2F2E41"/>
<path id="Vector_13" d="M457.826 340.265L463.804 359.367L460.287 375.977C460.287 375.977 446.574 397.986 460.639 396.74C474.704 395.494 477.165 383.452 477.165 383.452L479.275 375.562L481.033 376.393L486.308 365.181L476.462 346.494L469.781 332.791L457.826 340.265Z" fill="#2F2E41"/>
<path id="Vector_14" d="M495.098 180.808L497.208 193.681C497.208 193.681 505.999 216.935 497.208 217.766C488.417 218.596 488.417 194.927 488.417 194.927L489.121 185.376L495.098 180.808Z" fill="#FFB8B8"/>
<path id="hand" d="M343.549 113.952L331.242 111.461C331.242 111.461 306.98 96.5118 307.331 107.308C307.683 118.105 330.187 123.088 330.187 123.088L336.868 125.995L343.549 113.952Z" fill="#FFB8B8"/>
<path id="Vector_15" d="M437.784 53.3254C446.717 53.3254 453.958 44.7733 453.958 34.2238C453.958 23.6742 446.717 15.1221 437.784 15.1221C428.851 15.1221 421.609 23.6742 421.609 34.2238C421.609 44.7733 428.851 53.3254 437.784 53.3254Z" fill="#FFB8B8"/>
<path id="Vector_16" d="M430.751 47.0966C430.751 47.0966 434.267 62.8763 427.938 66.1983C421.609 69.5203 420.906 72.0118 420.906 72.0118C420.906 72.0118 463.1 87.7915 466.265 69.1051L451.849 59.5542C451.849 59.5542 450.442 46.2661 449.036 45.4356C447.629 44.6051 430.751 47.0966 430.751 47.0966Z" fill="#FFB8B8"/>
<path id="Vector_17" d="M481.072 80.1844C480.821 78.93 480.168 77.8393 479.25 77.1413C475.578 74.3482 466.022 67.2557 464.719 68.0807C463.101 69.1051 450.688 76.122 426.127 67.2153C426.127 67.2153 407.544 73.2576 402.27 77.4101C396.995 81.5626 385.97 94.967 385.97 94.967C385.97 94.967 335.936 104.501 336.287 109.484C336.639 114.467 332.702 126.421 332.702 126.421C332.702 126.421 365.483 134.284 398.775 117.953C398.775 117.953 409.302 146.757 408.247 152.156C407.192 157.554 407.192 161.291 415.631 160.461C424.07 159.63 437.08 157.139 443.761 158.385C450.442 159.63 475.407 161.707 475.407 159.63V146.757C475.407 146.757 483.143 191.605 488.066 191.605C492.989 191.605 500.611 188.1 503.776 174.812L488.41 116.743L481.072 80.1844Z" fill="#D0CDE1"/>
<path id="Vector_18" opacity="0.2" d="M442.306 202.833L433.621 291.755L435.148 291.963L443.832 203.041L442.306 202.833Z" fill="black"/>
<path id="Vector_19" d="M457.836 14.9685L443.168 5.89461L422.912 9.60679L418.722 31.4661L429.154 30.9919L432.068 22.9614V30.8594L436.882 30.6411L439.676 17.8556L441.422 31.4661L458.535 31.0536L457.836 14.9685Z" fill="#2F2E41"/>
<path id="h3" d="M301.676 75.3113C301.102 74.6299 300.42 74.089 299.669 73.7194C298.918 73.3499 298.112 73.159 297.298 73.1577C296.485 73.1564 295.679 73.3447 294.927 73.7119C294.175 74.079 293.491 74.6178 292.916 75.2973C292.341 75.9769 291.884 76.7838 291.573 77.6719C291.263 78.56 291.103 79.5118 291.104 80.4727C291.105 81.4337 291.267 82.385 291.58 83.2721C291.893 84.1592 292.351 84.9647 292.928 85.6424L301.676 95.9734L310.424 85.6424C311.579 84.2712 312.227 82.4149 312.224 80.4807C312.222 78.5466 311.571 76.6923 310.413 75.3246C309.255 73.957 307.684 73.1875 306.047 73.185C304.409 73.1825 302.837 73.9472 301.676 75.3113V75.3113Z" fill="#FF6584"/>
<path id="h2" d="M324.725 39.0182C324.151 38.3368 323.469 37.7959 322.718 37.4263C321.967 37.0568 321.161 36.8659 320.347 36.8646C319.534 36.8633 318.728 37.0516 317.976 37.4188C317.224 37.7859 316.54 38.3247 315.965 39.0042C315.39 39.6838 314.933 40.4907 314.622 41.3788C314.312 42.2669 314.152 43.2187 314.153 44.1797C314.154 45.1406 314.316 46.0919 314.629 46.979C314.942 47.8661 315.4 48.6716 315.977 49.3493L324.725 59.6803L333.473 49.3493C334.628 47.9781 335.275 46.1218 335.273 44.1876C335.271 42.2535 334.62 40.3992 333.461 39.0315C332.303 37.6639 330.733 36.8944 329.095 36.8919C327.458 36.8894 325.886 37.6541 324.725 39.0182V39.0182Z" fill="#FF6584"/>
<path id="h1" d="M290.92 5.14463C290.076 4.14755 289.075 3.35647 287.973 2.81659C286.871 2.27671 285.689 1.99861 284.496 1.99818C283.302 1.99776 282.121 2.27501 281.018 2.8141C279.916 3.35319 278.914 4.14355 278.07 5.14003C277.226 6.1365 276.557 7.31955 276.101 8.62159C275.644 9.92363 275.409 11.3191 275.41 12.7284C275.41 14.1376 275.646 15.5329 276.103 16.8346C276.56 18.1363 277.23 19.3189 278.074 20.3148L290.92 35.4849L303.765 20.3148C304.61 19.3189 305.279 18.1363 305.737 16.8346C306.194 15.5329 306.429 14.1376 306.43 12.7284C306.43 11.3191 306.195 9.92363 305.739 8.62159C305.282 7.31955 304.613 6.1365 303.769 5.14003C302.925 4.14355 301.924 3.35319 300.821 2.8141C299.719 2.27501 298.537 1.99776 297.344 1.99818C296.15 1.99861 294.969 2.27671 293.867 2.81659C292.764 3.35647 291.763 4.14755 290.92 5.14463Z" fill="#FF6584"/>

<path id="Vector_21" d="M248.189 176.022H54.0663V319.984H248.189V176.022Z" fill="white"/>
<g id="cartoon">
<path id="Vector_22" d="M167.477 320.843C167.708 320.758 167.933 320.674 168.163 320.589C177.358 317.095 185.332 310.145 190.871 300.8C196.409 291.455 199.207 280.227 198.839 268.829C198.666 263.357 197.757 257.952 196.145 252.818C192.578 241.432 185.764 231.87 176.875 225.776C167.985 219.681 157.574 217.435 147.434 219.423C137.294 221.411 128.057 227.51 121.311 236.67C114.566 245.83 110.734 257.48 110.475 269.615C110.243 280.743 113.032 291.667 118.433 300.789C123.834 309.911 131.565 316.754 140.495 320.317C140.725 320.414 140.961 320.504 141.191 320.589H153.868L167.477 320.843Z" fill="#2F2E41"/>
<path id="Vector_23" d="M141.882 309.768L140.494 320.317L140.458 320.589H126.87L127.94 312.459L128.668 306.943L141.882 309.768Z" fill="#2F2E41"/>
<path id="Vector_24" d="M167.477 320.843L167.513 320.589L168.307 315.417L155.092 312.593L153.868 320.589L167.477 320.843Z" fill="#2F2E41"/>
<path id="Vector_25" d="M157.761 275.944C166.103 275.944 172.866 267.957 172.866 258.105C172.866 248.252 166.103 240.265 157.761 240.265C149.418 240.265 142.655 248.252 142.655 258.105C142.655 267.957 149.418 275.944 157.761 275.944Z" fill="white"/>
<path id="Vector_26" d="M163.969 257.657C166.75 257.657 169.004 254.994 169.004 251.71C169.004 248.426 166.75 245.764 163.969 245.764C161.188 245.764 158.934 248.426 158.934 251.71C158.934 254.994 161.188 257.657 163.969 257.657Z" fill="#3F3D56"/>
<path id="Vector_27" d="M119.8 214.088C119.135 194.764 133.238 178.396 151.299 177.53C169.36 176.663 184.54 191.626 185.205 210.95C185.869 230.274 173.315 234.665 155.253 235.531C137.192 236.398 120.464 233.412 119.8 214.088Z" fill="#FF8D4E"/>
<path id="Vector_28" d="M197.028 269.349C208.924 266.129 217.874 259.942 217.018 255.532C216.162 251.121 205.824 250.157 193.928 253.377C182.031 256.597 173.081 262.783 173.937 267.194C174.793 271.604 185.131 272.569 197.028 269.349Z" fill="#2F2E41"/>
<path id="Vector_29" d="M110.267 286.388C122.164 283.168 131.114 276.982 130.258 272.571C129.402 268.16 119.064 267.196 107.167 270.416C95.2706 273.636 86.3204 279.822 87.1765 284.233C88.0326 288.643 98.3706 289.608 110.267 286.388Z" fill="#2F2E41"/>
<path id="Vector_30" d="M142.527 291.442C142.29 292.98 142.313 294.557 142.593 296.084C142.872 297.611 143.404 299.058 144.158 300.343C144.911 301.627 145.872 302.723 146.984 303.569C148.097 304.415 149.34 304.993 150.641 305.272C151.943 305.55 153.279 305.523 154.572 305.191C155.865 304.86 157.09 304.23 158.177 303.34C159.264 302.449 160.191 301.314 160.907 300C161.622 298.685 162.111 297.217 162.346 295.68C163.337 289.216 159.105 286.929 153.633 285.759C148.16 284.589 143.518 284.979 142.527 291.442Z" fill="white"/>
</g>
<path id="Vector_20" d="M266.628 151.826H35.115V393.78H266.628V151.826Z" fill="#3F3D56"/>
<path id="Smallbar" d="M172.896 341.76H54.0663V350.228H172.896V341.76Z" fill="#FF8D4E"/>
<path id="largebar" d="M248.189 359.907H54.0663V368.375H248.189V359.907Z" fill="#FF8D4E"/>
</g>
<defs>
<clipPath id="clip0">
<rect width="568" height="421" fill="white"/>
</clipPath>
</defs>
</svg>
