<svg width="101" height="101" viewBox="0 0 101 101" fill="none" xmlns="http://www.w3.org/2000/svg">
<g id="facebook (3) 1">
<rect width="101" height="101" fill="white"/>
<g id="Group 3">
<path id="Vector" d="M50.5 101C78.3904 101 101 78.3904 101 50.5C101 22.6096 78.3904 0 50.5 0C22.6096 0 0 22.6096 0 50.5C0 78.3904 22.6096 101 50.5 101Z" fill="#333333"/>
<path id="Vector_2" d="M63.1957 52.4769H54.1846V85.4894H40.532V52.4769H34.0388V40.875H40.532V33.3672C40.532 27.9983 43.0823 19.5913 54.3061 19.5913L64.4191 19.6336V30.8952H57.0814C55.8779 30.8952 54.1855 31.4966 54.1855 34.0577V40.8858H64.3884L63.1957 52.4769Z" fill="white"/>
</g>
</g>
</svg>
