<svg width="101" height="101" viewBox="0 0 101 101" fill="none" xmlns="http://www.w3.org/2000/svg">
<g id="instagram (1) 1">
<rect width="101" height="101" fill="white"/>
<g id="Group 2">
<path id="Vector" d="M60.166 50.5C60.166 55.8385 55.8385 60.166 50.5 60.166C45.1615 60.166 40.834 55.8385 40.834 50.5C40.834 45.1615 45.1615 40.834 50.5 40.834C55.8385 40.834 60.166 45.1615 60.166 50.5Z" fill="#333333"/>
<path id="Vector_2" d="M73.1054 33.398C72.6408 32.1389 71.8995 30.9992 70.9363 30.0637C70.0008 29.1005 68.8619 28.3592 67.602 27.8946C66.5802 27.4977 65.0453 27.0254 62.218 26.8967C59.1597 26.7572 58.2427 26.7272 50.5 26.7272C42.7566 26.7272 41.8396 26.7565 38.782 26.8959C35.9547 27.0254 34.419 27.4977 33.398 27.8946C32.1381 28.3592 30.9984 29.1005 30.0637 30.0637C29.1005 30.9992 28.3592 32.1381 27.8938 33.398C27.497 34.4198 27.0246 35.9555 26.8959 38.7827C26.7565 41.8403 26.7264 42.7573 26.7264 50.5008C26.7264 58.2434 26.7565 59.1604 26.8959 62.2188C27.0246 65.046 27.497 66.581 27.8938 67.6028C28.3592 68.8627 29.0998 70.0016 30.063 70.937C30.9984 71.9002 32.1373 72.6415 33.3972 73.1062C34.419 73.5038 35.9547 73.9762 38.782 74.1048C41.8396 74.2443 42.7558 74.2736 50.4992 74.2736C58.2434 74.2736 59.1604 74.2443 62.2173 74.1048C65.0445 73.9762 66.5802 73.5038 67.602 73.1062C70.131 72.1306 72.1299 70.1318 73.1054 67.6028C73.5023 66.581 73.9746 65.046 74.1041 62.2188C74.2435 59.1604 74.2728 58.2434 74.2728 50.5008C74.2728 42.7573 74.2435 41.8403 74.1041 38.7827C73.9754 35.9555 73.503 34.4198 73.1054 33.398V33.398ZM50.5 65.3905C42.2757 65.3905 35.6088 58.7243 35.6088 50.5C35.6088 42.2757 42.2757 35.6095 50.5 35.6095C58.7235 35.6095 65.3905 42.2757 65.3905 50.5C65.3905 58.7243 58.7235 65.3905 50.5 65.3905ZM65.9792 38.5007C64.0574 38.5007 62.4993 36.9426 62.4993 35.0208C62.4993 33.099 64.0574 31.5409 65.9792 31.5409C67.901 31.5409 69.4591 33.099 69.4591 35.0208C69.4583 36.9426 67.901 38.5007 65.9792 38.5007Z" fill="#333333"/>
<path id="Vector_3" d="M50.5 0C22.6139 0 0 22.6139 0 50.5C0 78.3861 22.6139 101 50.5 101C78.3861 101 101 78.3861 101 50.5C101 22.6139 78.3861 0 50.5 0ZM79.3231 62.4554C79.1829 65.5423 78.692 67.6498 77.9754 69.4945C76.4689 73.3897 73.3897 76.4689 69.4945 77.9754C67.6506 78.692 65.5423 79.1821 62.4561 79.3231C59.3639 79.4641 58.376 79.498 50.5008 79.498C42.6248 79.498 41.6377 79.4641 38.5446 79.3231C35.4585 79.1821 33.3502 78.692 31.5062 77.9754C29.5706 77.2472 27.8183 76.106 26.3696 74.6304C24.8948 73.1825 23.7536 71.4294 23.0254 69.4945C22.3087 67.6506 21.8179 65.5423 21.6776 62.4561C21.5351 59.3631 21.502 58.3752 21.502 50.5C21.502 42.6248 21.5351 41.6369 21.6769 38.5446C21.8171 35.4577 22.3072 33.3502 23.0238 31.5055C23.752 29.5706 24.894 27.8175 26.3696 26.3696C27.8175 24.894 29.5706 23.7528 31.5055 23.0246C33.3502 22.308 35.4577 21.8179 38.5446 21.6769C41.6369 21.5359 42.6248 21.502 50.5 21.502C58.3752 21.502 59.3631 21.5359 62.4554 21.6776C65.5423 21.8179 67.6498 22.308 69.4945 23.0238C71.4294 23.752 73.1825 24.894 74.6311 26.3696C76.106 27.8183 77.248 29.5706 77.9754 31.5055C78.6928 33.3502 79.1829 35.4577 79.3239 38.5446C79.4649 41.6369 79.498 42.6248 79.498 50.5C79.498 58.3752 79.4649 59.3631 79.3231 62.4554V62.4554Z" fill="#333333"/>
</g>
</g>
</svg>
