<svg width="101" height="101" viewBox="0 0 101 101" fill="none" xmlns="http://www.w3.org/2000/svg">
<g id="twitter (1) 1">
<rect width="101" height="101" fill="white"/>
<g id="Group 4">
<path id="Vector" d="M50.5 0C22.6139 0 0 22.6139 0 50.5C0 78.3861 22.6139 101 50.5 101C78.3861 101 101 78.3861 101 50.5C101 22.6139 78.3861 0 50.5 0ZM73.5577 39.3745C73.5801 39.8715 73.5909 40.3709 73.5909 40.8725C73.5909 56.1891 61.9322 73.8513 40.6113 73.8521H40.6121H40.6113C34.0653 73.8521 27.974 71.9334 22.8443 68.6454C23.7512 68.7525 24.6744 68.8056 25.6091 68.8056C31.0401 68.8056 36.038 66.9532 40.0056 63.8439C34.9314 63.7499 30.6532 60.3987 29.1768 55.793C29.8834 55.9287 30.6101 56.0026 31.3552 56.0026C32.4132 56.0026 33.4381 55.8601 34.4121 55.5942C29.1082 54.5324 25.1128 49.845 25.1128 44.2322C25.1128 44.1798 25.1128 44.1328 25.1144 44.0842C26.6763 44.9527 28.4625 45.4751 30.3643 45.5337C27.2519 43.457 25.2061 39.907 25.2061 35.8854C25.2061 33.7617 25.7802 31.7721 26.7757 30.0591C32.4918 37.0728 41.0343 41.6855 50.668 42.1702C50.4692 41.321 50.3667 40.4364 50.3667 39.5271C50.3667 33.1283 55.558 27.937 61.9591 27.937C65.2934 27.937 68.3048 29.3463 70.42 31.5995C73.0607 31.0786 75.5404 30.1138 77.7804 28.7861C76.9136 31.4916 75.0765 33.7617 72.6831 35.1973C75.028 34.9168 77.2626 34.2949 79.3393 33.3718C77.7882 35.6966 75.8209 37.7386 73.5577 39.3745V39.3745Z" fill="#333333"/>
</g>
</g>
</svg>
