<svg width="101" height="101" viewBox="0 0 101 101" fill="none" xmlns="http://www.w3.org/2000/svg">
<g id="whatsapp (1) 1">
<rect width="101" height="101" fill="white"/>
<g id="Group">
<path id="Vector" d="M50.5126 0H50.4874C22.6429 0 0 22.6492 0 50.5C0 61.5469 3.56025 71.7858 9.61394 80.0993L3.32038 98.8601L22.7313 92.6549C30.7166 97.9448 40.2422 101 50.5126 101C78.3571 101 101 78.3444 101 50.5C101 22.6556 78.3571 0 50.5126 0ZM79.8973 71.3123C78.679 74.7526 73.8436 77.6059 69.9867 78.4391C67.3481 79.0009 63.9014 79.4491 52.2991 74.639C37.4584 68.4906 27.9013 53.4101 27.1564 52.4316C26.4431 51.4532 21.1595 44.4463 21.1595 37.1996C21.1595 29.9528 24.8397 26.4241 26.3231 24.9091C27.5414 23.6656 29.5551 23.0974 31.4867 23.0974C32.1117 23.0974 32.6735 23.129 33.1785 23.1542C34.6619 23.2174 35.4068 23.3058 36.3852 25.6477C37.6036 28.583 40.5704 35.8298 40.9239 36.5746C41.2837 37.3195 41.6436 38.3295 41.1386 39.3079C40.6651 40.3179 40.2485 40.7661 39.5036 41.6246C38.7587 42.4831 38.0517 43.1396 37.3069 44.0613C36.6251 44.8629 35.855 45.7214 36.7135 47.2049C37.572 48.6568 40.5389 53.4984 44.9071 57.3869C50.5442 62.4054 55.1144 64.0088 56.7494 64.6905C57.9677 65.1955 59.4196 65.0756 60.3096 64.1287C61.4396 62.9104 62.8346 60.8904 64.2549 58.9019C65.2649 57.4753 66.5401 57.2986 67.8783 57.8036C69.2418 58.277 76.457 61.8436 77.9404 62.5821C79.4239 63.327 80.4023 63.6805 80.7621 64.3054C81.1156 64.9304 81.1156 67.8657 79.8973 71.3123Z" fill="#333333"/>
</g>
</g>
</svg>
