<svg width="101" height="101" viewBox="0 0 101 101" fill="none" xmlns="http://www.w3.org/2000/svg">
<g id="youtube (1) 1">
<rect width="101" height="101" fill="white"/>
<g id="Group 1">
<path id="Vector" d="M44.2098 59.961L60.6368 50.5L44.2098 41.039V59.961Z" fill="#333333"/>
<path id="Vector_2" d="M50.5 0C22.6139 0 0 22.6139 0 50.5C0 78.3861 22.6139 101 50.5 101C78.3861 101 101 78.3861 101 50.5C101 22.6139 78.3861 0 50.5 0ZM82.0548 50.5516C82.0548 50.5516 82.0548 60.7933 80.7556 65.7318C80.0274 68.435 77.896 70.5664 75.1929 71.2938C70.2543 72.5938 50.5 72.5938 50.5 72.5938C50.5 72.5938 30.7973 72.5937 25.8071 71.2422C23.104 70.5148 20.9726 68.3826 20.2444 65.6794C18.9444 60.7933 18.9444 50.5 18.9444 50.5C18.9444 50.5 18.9444 40.2591 20.2444 35.3206C20.9718 32.6174 23.1556 30.4336 25.8071 29.7062C30.7457 28.4062 50.5 28.4062 50.5 28.4062C50.5 28.4062 70.2543 28.4063 75.1929 29.7578C77.896 30.4852 80.0274 32.6174 80.7556 35.3206C82.1072 40.2591 82.0548 50.5516 82.0548 50.5516V50.5516Z" fill="#333333"/>
</g>
</g>
</svg>
